<?xml version="1.0" encoding="utf-8" standalone="no"?>
<!DOCTYPE svg PUBLIC "-//W3C//DTD SVG 1.1//EN"
  "http://www.w3.org/Graphics/SVG/1.1/DTD/svg11.dtd">
<svg xmlns:xlink="http://www.w3.org/1999/xlink" width="460.8pt" height="190.08pt" viewBox="0 0 460.8 190.08" xmlns="http://www.w3.org/2000/svg" version="1.1">
 <metadata>
  <rdf:RDF xmlns:dc="http://purl.org/dc/elements/1.1/" xmlns:cc="http://creativecommons.org/ns#" xmlns:rdf="http://www.w3.org/1999/02/22-rdf-syntax-ns#">
   <cc:Work>
    <dc:type rdf:resource="http://purl.org/dc/dcmitype/StillImage"/>
    <dc:date>2026-03-15T15:21:20.609989</dc:date>
    <dc:format>image/svg+xml</dc:format>
    <dc:creator>
     <cc:Agent>
      <dc:title>Matplotlib v3.10.5, https://matplotlib.org/</dc:title>
     </cc:Agent>
    </dc:creator>
   </cc:Work>
  </rdf:RDF>
 </metadata>
 <defs>
  <style type="text/css">*{stroke-linejoin: round; stroke-linecap: butt}</style>
 </defs>
 <g id="figure_1">
  <g id="patch_1">
   <path d="M 0 190.08 
L 460.8 190.08 
L 460.8 0 
L 0 0 
L 0 190.08 
z
" style="fill: none"/>
  </g>
  <g id="patch_2">
   <path d="M 0 190.08 
L 460.8 190.08 
L 460.8 0 
L 0 0 
L 0 190.08 
z
" style="fill: none; stroke: #ffffff; stroke-linejoin: miter"/>
  </g>
  <g id="axes_1">
   <g id="patch_3">
    <path d="M 34.269359 162.490172 
L 242.92668 162.490172 
L 242.92668 22.318 
L 34.269359 22.318 
L 34.269359 162.490172 
z
" style="fill: none"/>
   </g>
   <g id="matplotlib.axis_1">
    <g id="xtick_1">
     <g id="line2d_1">
      <path d="M 39.011571 162.490172 
L 39.011571 22.318 
" clip-path="url(#p2381cfe5d1)" style="fill: none; stroke: #000000; stroke-opacity: 0; stroke-linecap: square"/>
     </g>
     <g id="line2d_2">
      <path d="M 39.011571 162.490172 
" style="fill: none; stroke: #333333; stroke-width: 1.5; stroke-linecap: square"/>
      <defs>
       <path id="m24a3a731d6" d="M 0 0 
L 0 2.75 
" style="stroke: #333333"/>
      </defs>
      <g>
       <use xlink:href="#m24a3a731d6" x="39.011571" y="162.490172" style="fill: #333333; stroke: #333333"/>
      </g>
     </g>
     <g id="text_1">
      <!-- 0 -->
      <g transform="translate(37.204267 172.102906) scale(0.065 -0.065)">
       <defs>
        <path id="Helvetica-30" d="M 1731 4475 
Q 2600 4475 2988 3759 
Q 3288 3206 3288 2244 
Q 3288 1331 3016 734 
Q 2622 -122 1728 -122 
Q 922 -122 528 578 
Q 200 1163 200 2147 
Q 200 2909 397 3456 
Q 766 4475 1731 4475 
z
M 1725 391 
Q 2163 391 2422 778 
Q 2681 1166 2681 2222 
Q 2681 2984 2493 3476 
Q 2306 3969 1766 3969 
Q 1269 3969 1039 3501 
Q 809 3034 809 2125 
Q 809 1441 956 1025 
Q 1181 391 1725 391 
z
" transform="scale(0.015625)"/>
       </defs>
       <use xlink:href="#Helvetica-30"/>
      </g>
     </g>
    </g>
    <g id="xtick_2">
     <g id="line2d_3">
      <path d="M 100.062203 162.490172 
L 100.062203 22.318 
" clip-path="url(#p2381cfe5d1)" style="fill: none; stroke: #000000; stroke-opacity: 0; stroke-linecap: square"/>
     </g>
     <g id="line2d_4">
      <path d="M 100.062203 162.490172 
" style="fill: none; stroke: #333333; stroke-width: 1.5; stroke-linecap: square"/>
      <g>
       <use xlink:href="#m24a3a731d6" x="100.062203" y="162.490172" style="fill: #333333; stroke: #333333"/>
      </g>
     </g>
     <g id="text_2">
      <!-- 1 -->
      <g transform="translate(98.254898 172.102906) scale(0.065 -0.065)">
       <defs>
        <path id="Helvetica-31" d="M 613 3169 
L 613 3600 
Q 1222 3659 1462 3798 
Q 1703 3938 1822 4456 
L 2266 4456 
L 2266 0 
L 1666 0 
L 1666 3169 
L 613 3169 
z
" transform="scale(0.015625)"/>
       </defs>
       <use xlink:href="#Helvetica-31"/>
      </g>
     </g>
    </g>
    <g id="xtick_3">
     <g id="line2d_5">
      <path d="M 161.112834 162.490172 
L 161.112834 22.318 
" clip-path="url(#p2381cfe5d1)" style="fill: none; stroke: #000000; stroke-opacity: 0; stroke-linecap: square"/>
     </g>
     <g id="line2d_6">
      <path d="M 161.112834 162.490172 
" style="fill: none; stroke: #333333; stroke-width: 1.5; stroke-linecap: square"/>
      <g>
       <use xlink:href="#m24a3a731d6" x="161.112834" y="162.490172" style="fill: #333333; stroke: #333333"/>
      </g>
     </g>
     <g id="text_3">
      <!-- 2 -->
      <g transform="translate(159.30553 172.102906) scale(0.065 -0.065)">
       <defs>
        <path id="Helvetica-32" d="M 200 0 
Q 231 578 439 1006 
Q 647 1434 1250 1784 
L 1850 2131 
Q 2253 2366 2416 2531 
Q 2672 2791 2672 3125 
Q 2672 3516 2437 3745 
Q 2203 3975 1813 3975 
Q 1234 3975 1013 3538 
Q 894 3303 881 2888 
L 309 2888 
Q 319 3472 525 3841 
Q 891 4491 1816 4491 
Q 2584 4491 2939 4075 
Q 3294 3659 3294 3150 
Q 3294 2613 2916 2231 
Q 2697 2009 2131 1694 
L 1703 1456 
Q 1397 1288 1222 1134 
Q 909 863 828 531 
L 3272 531 
L 3272 0 
L 200 0 
z
" transform="scale(0.015625)"/>
       </defs>
       <use xlink:href="#Helvetica-32"/>
      </g>
     </g>
    </g>
    <g id="xtick_4">
     <g id="line2d_7">
      <path d="M 222.163466 162.490172 
L 222.163466 22.318 
" clip-path="url(#p2381cfe5d1)" style="fill: none; stroke: #000000; stroke-opacity: 0; stroke-linecap: square"/>
     </g>
     <g id="line2d_8">
      <path d="M 222.163466 162.490172 
" style="fill: none; stroke: #333333; stroke-width: 1.5; stroke-linecap: square"/>
      <g>
       <use xlink:href="#m24a3a731d6" x="222.163466" y="162.490172" style="fill: #333333; stroke: #333333"/>
      </g>
     </g>
     <g id="text_4">
      <!-- 3 -->
      <g transform="translate(220.356161 172.102906) scale(0.065 -0.065)">
       <defs>
        <path id="Helvetica-33" d="M 1663 -122 
Q 869 -122 511 314 
Q 153 750 153 1375 
L 741 1375 
Q 778 941 903 744 
Q 1122 391 1694 391 
Q 2138 391 2406 628 
Q 2675 866 2675 1241 
Q 2675 1703 2392 1887 
Q 2109 2072 1606 2072 
Q 1550 2072 1492 2070 
Q 1434 2069 1375 2066 
L 1375 2563 
Q 1463 2553 1522 2550 
Q 1581 2547 1650 2547 
Q 1966 2547 2169 2647 
Q 2525 2822 2525 3272 
Q 2525 3606 2287 3787 
Q 2050 3969 1734 3969 
Q 1172 3969 956 3594 
Q 838 3388 822 3006 
L 266 3006 
Q 266 3506 466 3856 
Q 809 4481 1675 4481 
Q 2359 4481 2734 4176 
Q 3109 3872 3109 3294 
Q 3109 2881 2888 2625 
Q 2750 2466 2531 2375 
Q 2884 2278 3082 2001 
Q 3281 1725 3281 1325 
Q 3281 684 2859 281 
Q 2438 -122 1663 -122 
z
" transform="scale(0.015625)"/>
       </defs>
       <use xlink:href="#Helvetica-33"/>
      </g>
     </g>
    </g>
    <g id="xtick_5">
     <g id="line2d_9">
      <path d="M 69.536887 162.490172 
L 69.536887 22.318 
" clip-path="url(#p2381cfe5d1)" style="fill: none; stroke: #000000; stroke-opacity: 0; stroke-width: 0.5; stroke-linecap: square"/>
     </g>
    </g>
    <g id="xtick_6">
     <g id="line2d_10">
      <path d="M 130.587519 162.490172 
L 130.587519 22.318 
" clip-path="url(#p2381cfe5d1)" style="fill: none; stroke: #000000; stroke-opacity: 0; stroke-width: 0.5; stroke-linecap: square"/>
     </g>
    </g>
    <g id="xtick_7">
     <g id="line2d_11">
      <path d="M 191.63815 162.490172 
L 191.63815 22.318 
" clip-path="url(#p2381cfe5d1)" style="fill: none; stroke: #000000; stroke-opacity: 0; stroke-width: 0.5; stroke-linecap: square"/>
     </g>
    </g>
   </g>
   <g id="matplotlib.axis_2">
    <g id="ytick_1">
     <g id="line2d_12">
      <path d="M 34.269359 156.11871 
L 242.92668 156.11871 
" clip-path="url(#p2381cfe5d1)" style="fill: none; stroke: #000000; stroke-opacity: 0; stroke-linecap: square"/>
     </g>
     <g id="line2d_13">
      <path d="M 34.269359 156.11871 
" style="fill: none; stroke: #333333; stroke-width: 1.5; stroke-linecap: square"/>
      <defs>
       <path id="m6871a89736" d="M 0 0 
L -2.75 0 
" style="stroke: #333333"/>
      </defs>
      <g>
       <use xlink:href="#m6871a89736" x="34.269359" y="156.11871" style="fill: #333333; stroke: #333333"/>
      </g>
     </g>
     <g id="text_5">
      <!-- 0.00 -->
      <g transform="translate(16.66975 158.450077) scale(0.065 -0.065)">
       <defs>
        <path id="Helvetica-2e" d="M 547 681 
L 1200 681 
L 1200 0 
L 547 0 
L 547 681 
z
" transform="scale(0.015625)"/>
       </defs>
       <use xlink:href="#Helvetica-30"/>
       <use xlink:href="#Helvetica-2e" transform="translate(55.615234 0)"/>
       <use xlink:href="#Helvetica-30" transform="translate(83.398438 0)"/>
       <use xlink:href="#Helvetica-30" transform="translate(139.013672 0)"/>
      </g>
     </g>
    </g>
    <g id="ytick_2">
     <g id="line2d_14">
      <path d="M 34.269359 125.202641 
L 242.92668 125.202641 
" clip-path="url(#p2381cfe5d1)" style="fill: none; stroke: #000000; stroke-opacity: 0; stroke-linecap: square"/>
     </g>
     <g id="line2d_15">
      <path d="M 34.269359 125.202641 
" style="fill: none; stroke: #333333; stroke-width: 1.5; stroke-linecap: square"/>
      <g>
       <use xlink:href="#m6871a89736" x="34.269359" y="125.202641" style="fill: #333333; stroke: #333333"/>
      </g>
     </g>
     <g id="text_6">
      <!-- 0.25 -->
      <g transform="translate(16.66975 127.534008) scale(0.065 -0.065)">
       <defs>
        <path id="Helvetica-35" d="M 791 1141 
Q 847 659 1238 475 
Q 1438 381 1700 381 
Q 2200 381 2440 700 
Q 2681 1019 2681 1406 
Q 2681 1875 2395 2131 
Q 2109 2388 1709 2388 
Q 1419 2388 1211 2275 
Q 1003 2163 856 1963 
L 369 1991 
L 709 4400 
L 3034 4400 
L 3034 3856 
L 1131 3856 
L 941 2613 
Q 1097 2731 1238 2791 
Q 1488 2894 1816 2894 
Q 2431 2894 2859 2497 
Q 3288 2100 3288 1491 
Q 3288 856 2895 371 
Q 2503 -113 1644 -113 
Q 1097 -113 676 195 
Q 256 503 206 1141 
L 791 1141 
z
" transform="scale(0.015625)"/>
       </defs>
       <use xlink:href="#Helvetica-30"/>
       <use xlink:href="#Helvetica-2e" transform="translate(55.615234 0)"/>
       <use xlink:href="#Helvetica-32" transform="translate(83.398438 0)"/>
       <use xlink:href="#Helvetica-35" transform="translate(139.013672 0)"/>
      </g>
     </g>
    </g>
    <g id="ytick_3">
     <g id="line2d_16">
      <path d="M 34.269359 94.286573 
L 242.92668 94.286573 
" clip-path="url(#p2381cfe5d1)" style="fill: none; stroke: #000000; stroke-opacity: 0; stroke-linecap: square"/>
     </g>
     <g id="line2d_17">
      <path d="M 34.269359 94.286573 
" style="fill: none; stroke: #333333; stroke-width: 1.5; stroke-linecap: square"/>
      <g>
       <use xlink:href="#m6871a89736" x="34.269359" y="94.286573" style="fill: #333333; stroke: #333333"/>
      </g>
     </g>
     <g id="text_7">
      <!-- 0.50 -->
      <g transform="translate(16.66975 96.61794) scale(0.065 -0.065)">
       <use xlink:href="#Helvetica-30"/>
       <use xlink:href="#Helvetica-2e" transform="translate(55.615234 0)"/>
       <use xlink:href="#Helvetica-35" transform="translate(83.398438 0)"/>
       <use xlink:href="#Helvetica-30" transform="translate(139.013672 0)"/>
      </g>
     </g>
    </g>
    <g id="ytick_4">
     <g id="line2d_18">
      <path d="M 34.269359 63.370504 
L 242.92668 63.370504 
" clip-path="url(#p2381cfe5d1)" style="fill: none; stroke: #000000; stroke-opacity: 0; stroke-linecap: square"/>
     </g>
     <g id="line2d_19">
      <path d="M 34.269359 63.370504 
" style="fill: none; stroke: #333333; stroke-width: 1.5; stroke-linecap: square"/>
      <g>
       <use xlink:href="#m6871a89736" x="34.269359" y="63.370504" style="fill: #333333; stroke: #333333"/>
      </g>
     </g>
     <g id="text_8">
      <!-- 0.75 -->
      <g transform="translate(16.66975 65.701871) scale(0.065 -0.065)">
       <defs>
        <path id="Helvetica-37" d="M 3347 4400 
L 3347 3909 
Q 3131 3700 2773 3181 
Q 2416 2663 2141 2063 
Q 1869 1478 1728 997 
Q 1638 688 1494 0 
L 872 0 
Q 1084 1281 1809 2550 
Q 2238 3294 2709 3834 
L 234 3834 
L 234 4400 
L 3347 4400 
z
" transform="scale(0.015625)"/>
       </defs>
       <use xlink:href="#Helvetica-30"/>
       <use xlink:href="#Helvetica-2e" transform="translate(55.615234 0)"/>
       <use xlink:href="#Helvetica-37" transform="translate(83.398438 0)"/>
       <use xlink:href="#Helvetica-35" transform="translate(139.013672 0)"/>
      </g>
     </g>
    </g>
    <g id="ytick_5">
     <g id="line2d_20">
      <path d="M 34.269359 32.454436 
L 242.92668 32.454436 
" clip-path="url(#p2381cfe5d1)" style="fill: none; stroke: #000000; stroke-opacity: 0; stroke-linecap: square"/>
     </g>
     <g id="line2d_21">
      <path d="M 34.269359 32.454436 
" style="fill: none; stroke: #333333; stroke-width: 1.5; stroke-linecap: square"/>
      <g>
       <use xlink:href="#m6871a89736" x="34.269359" y="32.454436" style="fill: #333333; stroke: #333333"/>
      </g>
     </g>
     <g id="text_9">
      <!-- 1.00 -->
      <g transform="translate(16.66975 34.785803) scale(0.065 -0.065)">
       <use xlink:href="#Helvetica-31"/>
       <use xlink:href="#Helvetica-2e" transform="translate(55.615234 0)"/>
       <use xlink:href="#Helvetica-30" transform="translate(83.398438 0)"/>
       <use xlink:href="#Helvetica-30" transform="translate(139.013672 0)"/>
      </g>
     </g>
    </g>
    <g id="ytick_6">
     <g id="line2d_22">
      <path d="M 34.269359 140.660675 
L 242.92668 140.660675 
" clip-path="url(#p2381cfe5d1)" style="fill: none; stroke: #000000; stroke-opacity: 0; stroke-width: 0.5; stroke-linecap: square"/>
     </g>
    </g>
    <g id="ytick_7">
     <g id="line2d_23">
      <path d="M 34.269359 109.744607 
L 242.92668 109.744607 
" clip-path="url(#p2381cfe5d1)" style="fill: none; stroke: #000000; stroke-opacity: 0; stroke-width: 0.5; stroke-linecap: square"/>
     </g>
    </g>
    <g id="ytick_8">
     <g id="line2d_24">
      <path d="M 34.269359 78.828538 
L 242.92668 78.828538 
" clip-path="url(#p2381cfe5d1)" style="fill: none; stroke: #000000; stroke-opacity: 0; stroke-width: 0.5; stroke-linecap: square"/>
     </g>
    </g>
    <g id="ytick_9">
     <g id="line2d_25">
      <path d="M 34.269359 47.91247 
L 242.92668 47.91247 
" clip-path="url(#p2381cfe5d1)" style="fill: none; stroke: #000000; stroke-opacity: 0; stroke-width: 0.5; stroke-linecap: square"/>
     </g>
    </g>
   </g>
   <g id="PolyCollection_1">
    <path d="M 43.753783 156.11871 
L 43.753783 154.463784 
L 53.238207 154.463784 
L 53.238207 156.11871 
z
" clip-path="url(#p2381cfe5d1)" style="fill: #fa8072; fill-opacity: 0.501961; stroke: #000000; stroke-width: 0.886227"/>
    <path d="M 53.238207 156.11871 
L 53.238207 149.499008 
L 62.72263 149.499008 
L 62.72263 156.11871 
z
" clip-path="url(#p2381cfe5d1)" style="fill: #fa8072; fill-opacity: 0.501961; stroke: #000000; stroke-width: 0.886227"/>
    <path d="M 62.72263 156.11871 
L 62.72263 126.330054 
L 72.207054 126.330054 
L 72.207054 156.11871 
z
" clip-path="url(#p2381cfe5d1)" style="fill: #fa8072; fill-opacity: 0.501961; stroke: #000000; stroke-width: 0.886227"/>
    <path d="M 72.207054 156.11871 
L 72.207054 127.98498 
L 81.691478 127.98498 
L 81.691478 156.11871 
z
" clip-path="url(#p2381cfe5d1)" style="fill: #fa8072; fill-opacity: 0.501961; stroke: #000000; stroke-width: 0.886227"/>
    <path d="M 81.691478 156.11871 
L 81.691478 118.055428 
L 91.175901 118.055428 
L 91.175901 156.11871 
z
" clip-path="url(#p2381cfe5d1)" style="fill: #fa8072; fill-opacity: 0.501961; stroke: #000000; stroke-width: 0.886227"/>
    <path d="M 91.175901 156.11871 
L 91.175901 81.647072 
L 100.660325 81.647072 
L 100.660325 156.11871 
z
" clip-path="url(#p2381cfe5d1)" style="fill: #fa8072; fill-opacity: 0.501961; stroke: #000000; stroke-width: 0.886227"/>
    <path d="M 100.660325 156.11871 
L 100.660325 46.893641 
L 110.144749 46.893641 
L 110.144749 156.11871 
z
" clip-path="url(#p2381cfe5d1)" style="fill: #fa8072; fill-opacity: 0.501961; stroke: #000000; stroke-width: 0.886227"/>
    <path d="M 110.144749 156.11871 
L 110.144749 60.133043 
L 119.629172 60.133043 
L 119.629172 156.11871 
z
" clip-path="url(#p2381cfe5d1)" style="fill: #fa8072; fill-opacity: 0.501961; stroke: #000000; stroke-width: 0.886227"/>
    <path d="M 119.629172 156.11871 
L 119.629172 28.689462 
L 129.113596 28.689462 
L 129.113596 156.11871 
z
" clip-path="url(#p2381cfe5d1)" style="fill: #fa8072; fill-opacity: 0.501961; stroke: #000000; stroke-width: 0.886227"/>
    <path d="M 129.113596 156.11871 
L 129.113596 75.02737 
L 138.59802 75.02737 
L 138.59802 156.11871 
z
" clip-path="url(#p2381cfe5d1)" style="fill: #fa8072; fill-opacity: 0.501961; stroke: #000000; stroke-width: 0.886227"/>
    <path d="M 138.59802 156.11871 
L 138.59802 114.745577 
L 148.082443 114.745577 
L 148.082443 156.11871 
z
" clip-path="url(#p2381cfe5d1)" style="fill: #fa8072; fill-opacity: 0.501961; stroke: #000000; stroke-width: 0.886227"/>
    <path d="M 148.082443 156.11871 
L 148.082443 109.780801 
L 157.566867 109.780801 
L 157.566867 156.11871 
z
" clip-path="url(#p2381cfe5d1)" style="fill: #fa8072; fill-opacity: 0.501961; stroke: #000000; stroke-width: 0.886227"/>
    <path d="M 157.566867 156.11871 
L 157.566867 109.780801 
L 167.05129 109.780801 
L 167.05129 156.11871 
z
" clip-path="url(#p2381cfe5d1)" style="fill: #fa8072; fill-opacity: 0.501961; stroke: #000000; stroke-width: 0.886227"/>
    <path d="M 167.05129 156.11871 
L 167.05129 131.29483 
L 176.535714 131.29483 
L 176.535714 156.11871 
z
" clip-path="url(#p2381cfe5d1)" style="fill: #fa8072; fill-opacity: 0.501961; stroke: #000000; stroke-width: 0.886227"/>
    <path d="M 176.535714 156.11871 
L 176.535714 139.569457 
L 186.020138 139.569457 
L 186.020138 156.11871 
z
" clip-path="url(#p2381cfe5d1)" style="fill: #fa8072; fill-opacity: 0.501961; stroke: #000000; stroke-width: 0.886227"/>
    <path d="M 186.020138 156.11871 
L 186.020138 149.499008 
L 195.504561 149.499008 
L 195.504561 156.11871 
z
" clip-path="url(#p2381cfe5d1)" style="fill: #fa8072; fill-opacity: 0.501961; stroke: #000000; stroke-width: 0.886227"/>
    <path d="M 195.504561 156.11871 
L 195.504561 146.189158 
L 204.988985 146.189158 
L 204.988985 156.11871 
z
" clip-path="url(#p2381cfe5d1)" style="fill: #fa8072; fill-opacity: 0.501961; stroke: #000000; stroke-width: 0.886227"/>
    <path d="M 204.988985 156.11871 
L 204.988985 151.153934 
L 214.473409 151.153934 
L 214.473409 156.11871 
z
" clip-path="url(#p2381cfe5d1)" style="fill: #fa8072; fill-opacity: 0.501961; stroke: #000000; stroke-width: 0.886227"/>
    <path d="M 214.473409 156.11871 
L 214.473409 151.153934 
L 223.957832 151.153934 
L 223.957832 156.11871 
z
" clip-path="url(#p2381cfe5d1)" style="fill: #fa8072; fill-opacity: 0.501961; stroke: #000000; stroke-width: 0.886227"/>
    <path d="M 223.957832 156.11871 
L 223.957832 154.463784 
L 233.442256 154.463784 
L 233.442256 156.11871 
z
" clip-path="url(#p2381cfe5d1)" style="fill: #fa8072; fill-opacity: 0.501961; stroke: #000000; stroke-width: 0.886227"/>
   </g>
  </g>
  <g id="axes_2">
   <g id="patch_4">
    <path d="M 247.53468 162.490172 
L 456.192 162.490172 
L 456.192 22.318 
L 247.53468 22.318 
L 247.53468 162.490172 
z
" style="fill: none"/>
   </g>
   <g id="matplotlib.axis_3">
    <g id="xtick_8">
     <g id="line2d_26">
      <path d="M 252.276892 162.490172 
L 252.276892 22.318 
" clip-path="url(#p7f8b070735)" style="fill: none; stroke: #000000; stroke-opacity: 0; stroke-linecap: square"/>
     </g>
     <g id="line2d_27">
      <path d="M 252.276892 162.490172 
" style="fill: none; stroke: #333333; stroke-width: 1.5; stroke-linecap: square"/>
      <g>
       <use xlink:href="#m24a3a731d6" x="252.276892" y="162.490172" style="fill: #333333; stroke: #333333"/>
      </g>
     </g>
     <g id="text_10">
      <!-- 0 -->
      <g transform="translate(250.469587 172.102906) scale(0.065 -0.065)">
       <use xlink:href="#Helvetica-30"/>
      </g>
     </g>
    </g>
    <g id="xtick_9">
     <g id="line2d_28">
      <path d="M 313.327523 162.490172 
L 313.327523 22.318 
" clip-path="url(#p7f8b070735)" style="fill: none; stroke: #000000; stroke-opacity: 0; stroke-linecap: square"/>
     </g>
     <g id="line2d_29">
      <path d="M 313.327523 162.490172 
" style="fill: none; stroke: #333333; stroke-width: 1.5; stroke-linecap: square"/>
      <g>
       <use xlink:href="#m24a3a731d6" x="313.327523" y="162.490172" style="fill: #333333; stroke: #333333"/>
      </g>
     </g>
     <g id="text_11">
      <!-- 1 -->
      <g transform="translate(311.520218 172.102906) scale(0.065 -0.065)">
       <use xlink:href="#Helvetica-31"/>
      </g>
     </g>
    </g>
    <g id="xtick_10">
     <g id="line2d_30">
      <path d="M 374.378155 162.490172 
L 374.378155 22.318 
" clip-path="url(#p7f8b070735)" style="fill: none; stroke: #000000; stroke-opacity: 0; stroke-linecap: square"/>
     </g>
     <g id="line2d_31">
      <path d="M 374.378155 162.490172 
" style="fill: none; stroke: #333333; stroke-width: 1.5; stroke-linecap: square"/>
      <g>
       <use xlink:href="#m24a3a731d6" x="374.378155" y="162.490172" style="fill: #333333; stroke: #333333"/>
      </g>
     </g>
     <g id="text_12">
      <!-- 2 -->
      <g transform="translate(372.57085 172.102906) scale(0.065 -0.065)">
       <use xlink:href="#Helvetica-32"/>
      </g>
     </g>
    </g>
    <g id="xtick_11">
     <g id="line2d_32">
      <path d="M 435.428786 162.490172 
L 435.428786 22.318 
" clip-path="url(#p7f8b070735)" style="fill: none; stroke: #000000; stroke-opacity: 0; stroke-linecap: square"/>
     </g>
     <g id="line2d_33">
      <path d="M 435.428786 162.490172 
" style="fill: none; stroke: #333333; stroke-width: 1.5; stroke-linecap: square"/>
      <g>
       <use xlink:href="#m24a3a731d6" x="435.428786" y="162.490172" style="fill: #333333; stroke: #333333"/>
      </g>
     </g>
     <g id="text_13">
      <!-- 3 -->
      <g transform="translate(433.621482 172.102906) scale(0.065 -0.065)">
       <use xlink:href="#Helvetica-33"/>
      </g>
     </g>
    </g>
    <g id="xtick_12">
     <g id="line2d_34">
      <path d="M 282.802207 162.490172 
L 282.802207 22.318 
" clip-path="url(#p7f8b070735)" style="fill: none; stroke: #000000; stroke-opacity: 0; stroke-width: 0.5; stroke-linecap: square"/>
     </g>
    </g>
    <g id="xtick_13">
     <g id="line2d_35">
      <path d="M 343.852839 162.490172 
L 343.852839 22.318 
" clip-path="url(#p7f8b070735)" style="fill: none; stroke: #000000; stroke-opacity: 0; stroke-width: 0.5; stroke-linecap: square"/>
     </g>
    </g>
    <g id="xtick_14">
     <g id="line2d_36">
      <path d="M 404.903471 162.490172 
L 404.903471 22.318 
" clip-path="url(#p7f8b070735)" style="fill: none; stroke: #000000; stroke-opacity: 0; stroke-width: 0.5; stroke-linecap: square"/>
     </g>
    </g>
   </g>
   <g id="matplotlib.axis_4">
    <g id="ytick_10">
     <g id="line2d_37">
      <path d="M 247.53468 156.11871 
L 456.192 156.11871 
" clip-path="url(#p7f8b070735)" style="fill: none; stroke: #000000; stroke-opacity: 0; stroke-linecap: square"/>
     </g>
    </g>
    <g id="ytick_11">
     <g id="line2d_38">
      <path d="M 247.53468 125.202641 
L 456.192 125.202641 
" clip-path="url(#p7f8b070735)" style="fill: none; stroke: #000000; stroke-opacity: 0; stroke-linecap: square"/>
     </g>
    </g>
    <g id="ytick_12">
     <g id="line2d_39">
      <path d="M 247.53468 94.286573 
L 456.192 94.286573 
" clip-path="url(#p7f8b070735)" style="fill: none; stroke: #000000; stroke-opacity: 0; stroke-linecap: square"/>
     </g>
    </g>
    <g id="ytick_13">
     <g id="line2d_40">
      <path d="M 247.53468 63.370504 
L 456.192 63.370504 
" clip-path="url(#p7f8b070735)" style="fill: none; stroke: #000000; stroke-opacity: 0; stroke-linecap: square"/>
     </g>
    </g>
    <g id="ytick_14">
     <g id="line2d_41">
      <path d="M 247.53468 32.454436 
L 456.192 32.454436 
" clip-path="url(#p7f8b070735)" style="fill: none; stroke: #000000; stroke-opacity: 0; stroke-linecap: square"/>
     </g>
    </g>
    <g id="ytick_15">
     <g id="line2d_42">
      <path d="M 247.53468 140.660675 
L 456.192 140.660675 
" clip-path="url(#p7f8b070735)" style="fill: none; stroke: #000000; stroke-opacity: 0; stroke-width: 0.5; stroke-linecap: square"/>
     </g>
    </g>
    <g id="ytick_16">
     <g id="line2d_43">
      <path d="M 247.53468 109.744607 
L 456.192 109.744607 
" clip-path="url(#p7f8b070735)" style="fill: none; stroke: #000000; stroke-opacity: 0; stroke-width: 0.5; stroke-linecap: square"/>
     </g>
    </g>
    <g id="ytick_17">
     <g id="line2d_44">
      <path d="M 247.53468 78.828538 
L 456.192 78.828538 
" clip-path="url(#p7f8b070735)" style="fill: none; stroke: #000000; stroke-opacity: 0; stroke-width: 0.5; stroke-linecap: square"/>
     </g>
    </g>
    <g id="ytick_18">
     <g id="line2d_45">
      <path d="M 247.53468 47.91247 
L 456.192 47.91247 
" clip-path="url(#p7f8b070735)" style="fill: none; stroke: #000000; stroke-opacity: 0; stroke-width: 0.5; stroke-linecap: square"/>
     </g>
    </g>
   </g>
   <g id="PolyCollection_2">
    <path d="M 257.019103 156.11871 
L 257.019103 156.11871 
L 266.503527 156.11871 
L 266.503527 156.11871 
z
" clip-path="url(#p7f8b070735)" style="fill: #fa8072; fill-opacity: 0.501961; stroke: #000000; stroke-width: 0.886227"/>
    <path d="M 266.503527 156.11871 
L 266.503527 156.11871 
L 275.987951 156.11871 
L 275.987951 156.11871 
z
" clip-path="url(#p7f8b070735)" style="fill: #fa8072; fill-opacity: 0.501961; stroke: #000000; stroke-width: 0.886227"/>
    <path d="M 275.987951 156.11871 
L 275.987951 137.914531 
L 285.472374 137.914531 
L 285.472374 156.11871 
z
" clip-path="url(#p7f8b070735)" style="fill: #fa8072; fill-opacity: 0.501961; stroke: #000000; stroke-width: 0.886227"/>
    <path d="M 285.472374 156.11871 
L 285.472374 119.710353 
L 294.956798 119.710353 
L 294.956798 156.11871 
z
" clip-path="url(#p7f8b070735)" style="fill: #fa8072; fill-opacity: 0.501961; stroke: #000000; stroke-width: 0.886227"/>
    <path d="M 294.956798 156.11871 
L 294.956798 132.949755 
L 304.441222 132.949755 
L 304.441222 156.11871 
z
" clip-path="url(#p7f8b070735)" style="fill: #fa8072; fill-opacity: 0.501961; stroke: #000000; stroke-width: 0.886227"/>
    <path d="M 304.441222 156.11871 
L 304.441222 103.1611 
L 313.925645 103.1611 
L 313.925645 156.11871 
z
" clip-path="url(#p7f8b070735)" style="fill: #fa8072; fill-opacity: 0.501961; stroke: #000000; stroke-width: 0.886227"/>
    <path d="M 313.925645 156.11871 
L 313.925645 65.097819 
L 323.410069 65.097819 
L 323.410069 156.11871 
z
" clip-path="url(#p7f8b070735)" style="fill: #fa8072; fill-opacity: 0.501961; stroke: #000000; stroke-width: 0.886227"/>
    <path d="M 323.410069 156.11871 
L 323.410069 51.858416 
L 332.894493 51.858416 
L 332.894493 156.11871 
z
" clip-path="url(#p7f8b070735)" style="fill: #fa8072; fill-opacity: 0.501961; stroke: #000000; stroke-width: 0.886227"/>
    <path d="M 332.894493 156.11871 
L 332.894493 43.58379 
L 342.378916 43.58379 
L 342.378916 156.11871 
z
" clip-path="url(#p7f8b070735)" style="fill: #fa8072; fill-opacity: 0.501961; stroke: #000000; stroke-width: 0.886227"/>
    <path d="M 342.378916 156.11871 
L 342.378916 81.647072 
L 351.86334 81.647072 
L 351.86334 156.11871 
z
" clip-path="url(#p7f8b070735)" style="fill: #fa8072; fill-opacity: 0.501961; stroke: #000000; stroke-width: 0.886227"/>
    <path d="M 351.86334 156.11871 
L 351.86334 73.372445 
L 361.347763 73.372445 
L 361.347763 156.11871 
z
" clip-path="url(#p7f8b070735)" style="fill: #fa8072; fill-opacity: 0.501961; stroke: #000000; stroke-width: 0.886227"/>
    <path d="M 361.347763 156.11871 
L 361.347763 114.745577 
L 370.832187 114.745577 
L 370.832187 156.11871 
z
" clip-path="url(#p7f8b070735)" style="fill: #fa8072; fill-opacity: 0.501961; stroke: #000000; stroke-width: 0.886227"/>
    <path d="M 370.832187 156.11871 
L 370.832187 93.231549 
L 380.316611 93.231549 
L 380.316611 156.11871 
z
" clip-path="url(#p7f8b070735)" style="fill: #fa8072; fill-opacity: 0.501961; stroke: #000000; stroke-width: 0.886227"/>
    <path d="M 380.316611 156.11871 
L 380.316611 129.639905 
L 389.801034 129.639905 
L 389.801034 156.11871 
z
" clip-path="url(#p7f8b070735)" style="fill: #fa8072; fill-opacity: 0.501961; stroke: #000000; stroke-width: 0.886227"/>
    <path d="M 389.801034 156.11871 
L 389.801034 126.330054 
L 399.285458 126.330054 
L 399.285458 156.11871 
z
" clip-path="url(#p7f8b070735)" style="fill: #fa8072; fill-opacity: 0.501961; stroke: #000000; stroke-width: 0.886227"/>
    <path d="M 399.285458 156.11871 
L 399.285458 139.569457 
L 408.769882 139.569457 
L 408.769882 156.11871 
z
" clip-path="url(#p7f8b070735)" style="fill: #fa8072; fill-opacity: 0.501961; stroke: #000000; stroke-width: 0.886227"/>
    <path d="M 408.769882 156.11871 
L 408.769882 144.534233 
L 418.254305 144.534233 
L 418.254305 156.11871 
z
" clip-path="url(#p7f8b070735)" style="fill: #fa8072; fill-opacity: 0.501961; stroke: #000000; stroke-width: 0.886227"/>
    <path d="M 418.254305 156.11871 
L 418.254305 152.808859 
L 427.738729 152.808859 
L 427.738729 156.11871 
z
" clip-path="url(#p7f8b070735)" style="fill: #fa8072; fill-opacity: 0.501961; stroke: #000000; stroke-width: 0.886227"/>
    <path d="M 427.738729 156.11871 
L 427.738729 149.499008 
L 437.223153 149.499008 
L 437.223153 156.11871 
z
" clip-path="url(#p7f8b070735)" style="fill: #fa8072; fill-opacity: 0.501961; stroke: #000000; stroke-width: 0.886227"/>
    <path d="M 437.223153 156.11871 
L 437.223153 154.463784 
L 446.707576 154.463784 
L 446.707576 156.11871 
z
" clip-path="url(#p7f8b070735)" style="fill: #fa8072; fill-opacity: 0.501961; stroke: #000000; stroke-width: 0.886227"/>
   </g>
  </g>
  <g id="patch_5">
   <path d="M 34.269359 162.490172 
L 242.92668 162.490172 
L 242.92668 22.318 
L 34.269359 22.318 
L 34.269359 162.490172 
z
" style="fill: none; stroke: #000000; stroke-linejoin: miter"/>
  </g>
  <g id="patch_6">
   <path d="M 247.53468 162.490172 
L 456.192 162.490172 
L 456.192 22.318 
L 247.53468 22.318 
L 247.53468 162.490172 
z
" style="fill: none; stroke: #000000; stroke-linejoin: miter"/>
  </g>
  <g id="text_14">
   <!-- $\mathit{\Delta A}$ -->
   <g transform="translate(239.75068 183.8045) scale(0.08 -0.08)">
    <defs>
     <path id="DejaVuSans-394" d="M 2188 4044 
L 906 525 
L 3472 525 
L 2188 4044 
z
M 50 0 
L 1831 4666 
L 2547 4666 
L 4325 0 
L 50 0 
z
" transform="scale(0.015625)"/>
     <path id="DejaVuSans-Oblique-41" d="M 2356 4666 
L 3072 4666 
L 3938 0 
L 3278 0 
L 3084 1197 
L 984 1197 
L 325 0 
L -341 0 
L 2356 4666 
z
M 2584 4044 
L 1275 1722 
L 2988 1722 
L 2584 4044 
z
" transform="scale(0.015625)"/>
    </defs>
    <use xlink:href="#DejaVuSans-394" transform="translate(0 0.09375)"/>
    <use xlink:href="#DejaVuSans-Oblique-41" transform="translate(68.408203 0.09375)"/>
   </g>
  </g>
  <g id="text_15">
   <!-- Density -->
   <g transform="translate(10.34675 105.741586) rotate(-90) scale(0.08 -0.08)">
    <defs>
     <path id="Helvetica-44" d="M 2250 531 
Q 2566 531 2769 597 
Q 3131 719 3363 1066 
Q 3547 1344 3628 1778 
Q 3675 2038 3675 2259 
Q 3675 3113 3336 3584 
Q 2997 4056 2244 4056 
L 1141 4056 
L 1141 531 
L 2250 531 
z
M 516 4591 
L 2375 4591 
Q 3322 4591 3844 3919 
Q 4309 3313 4309 2366 
Q 4309 1634 4034 1044 
Q 3550 0 2369 0 
L 516 0 
L 516 4591 
z
" transform="scale(0.015625)"/>
     <path id="Helvetica-65" d="M 1806 3422 
Q 2163 3422 2497 3255 
Q 2831 3088 3006 2822 
Q 3175 2569 3231 2231 
Q 3281 2000 3281 1494 
L 828 1494 
Q 844 984 1069 676 
Q 1294 369 1766 369 
Q 2206 369 2469 659 
Q 2619 828 2681 1050 
L 3234 1050 
Q 3213 866 3089 639 
Q 2966 413 2813 269 
Q 2556 19 2178 -69 
Q 1975 -119 1719 -119 
Q 1094 -119 659 336 
Q 225 791 225 1609 
Q 225 2416 662 2919 
Q 1100 3422 1806 3422 
z
M 2703 1941 
Q 2669 2306 2544 2525 
Q 2313 2931 1772 2931 
Q 1384 2931 1121 2651 
Q 859 2372 844 1941 
L 2703 1941 
z
M 1753 3428 
L 1753 3428 
z
" transform="scale(0.015625)"/>
     <path id="Helvetica-6e" d="M 413 3347 
L 947 3347 
L 947 2872 
Q 1184 3166 1450 3294 
Q 1716 3422 2041 3422 
Q 2753 3422 3003 2925 
Q 3141 2653 3141 2147 
L 3141 0 
L 2569 0 
L 2569 2109 
Q 2569 2416 2478 2603 
Q 2328 2916 1934 2916 
Q 1734 2916 1606 2875 
Q 1375 2806 1200 2600 
Q 1059 2434 1017 2257 
Q 975 2081 975 1753 
L 975 0 
L 413 0 
L 413 3347 
z
M 1734 3428 
L 1734 3428 
z
" transform="scale(0.015625)"/>
     <path id="Helvetica-73" d="M 747 1050 
Q 772 769 888 619 
Q 1100 347 1625 347 
Q 1938 347 2175 483 
Q 2413 619 2413 903 
Q 2413 1119 2222 1231 
Q 2100 1300 1741 1391 
L 1294 1503 
Q 866 1609 663 1741 
Q 300 1969 300 2372 
Q 300 2847 642 3140 
Q 984 3434 1563 3434 
Q 2319 3434 2653 2991 
Q 2863 2709 2856 2384 
L 2325 2384 
Q 2309 2575 2191 2731 
Q 1997 2953 1519 2953 
Q 1200 2953 1036 2831 
Q 872 2709 872 2509 
Q 872 2291 1088 2159 
Q 1213 2081 1456 2022 
L 1828 1931 
Q 2434 1784 2641 1647 
Q 2969 1431 2969 969 
Q 2969 522 2630 197 
Q 2291 -128 1597 -128 
Q 850 -128 539 211 
Q 228 550 206 1050 
L 747 1050 
z
M 1578 3428 
L 1578 3428 
z
" transform="scale(0.015625)"/>
     <path id="Helvetica-69" d="M 413 3331 
L 984 3331 
L 984 0 
L 413 0 
L 413 3331 
z
M 413 4591 
L 984 4591 
L 984 3953 
L 413 3953 
L 413 4591 
z
" transform="scale(0.015625)"/>
     <path id="Helvetica-74" d="M 525 4281 
L 1094 4281 
L 1094 3347 
L 1628 3347 
L 1628 2888 
L 1094 2888 
L 1094 703 
Q 1094 528 1213 469 
Q 1278 434 1431 434 
Q 1472 434 1519 436 
Q 1566 438 1628 444 
L 1628 0 
Q 1531 -28 1426 -40 
Q 1322 -53 1200 -53 
Q 806 -53 665 148 
Q 525 350 525 672 
L 525 2888 
L 72 2888 
L 72 3347 
L 525 3347 
L 525 4281 
z
" transform="scale(0.015625)"/>
     <path id="Helvetica-79" d="M 2503 3347 
L 3125 3347 
Q 3006 3025 2597 1878 
Q 2291 1016 2084 472 
Q 1597 -809 1397 -1090 
Q 1197 -1372 709 -1372 
Q 591 -1372 527 -1362 
Q 463 -1353 369 -1328 
L 369 -816 
Q 516 -856 581 -865 
Q 647 -875 697 -875 
Q 853 -875 926 -823 
Q 1000 -772 1050 -697 
Q 1066 -672 1162 -440 
Q 1259 -209 1303 -97 
L 66 3347 
L 703 3347 
L 1600 622 
L 2503 3347 
z
M 1597 3428 
L 1597 3428 
z
" transform="scale(0.015625)"/>
    </defs>
    <use xlink:href="#Helvetica-44"/>
    <use xlink:href="#Helvetica-65" transform="translate(72.216797 0)"/>
    <use xlink:href="#Helvetica-6e" transform="translate(127.832031 0)"/>
    <use xlink:href="#Helvetica-73" transform="translate(183.447266 0)"/>
    <use xlink:href="#Helvetica-69" transform="translate(233.447266 0)"/>
    <use xlink:href="#Helvetica-74" transform="translate(255.664062 0)"/>
    <use xlink:href="#Helvetica-79" transform="translate(283.447266 0)"/>
   </g>
  </g>
  <g id="text_16">
   <!--  -->
   <g transform="translate(138.59802 6.263) scale(0.08 -0.08)"/>
   <!-- experimental data -->
   <g transform="translate(106.803645 16.56675) scale(0.08 -0.08)">
    <defs>
     <path id="Helvetica-78" d="M 94 3347 
L 822 3347 
L 1591 2169 
L 2369 3347 
L 3053 3331 
L 1925 1716 
L 3103 0 
L 2384 0 
L 1553 1256 
L 747 0 
L 34 0 
L 1213 1716 
L 94 3347 
z
" transform="scale(0.015625)"/>
     <path id="Helvetica-70" d="M 1825 378 
Q 2219 378 2480 708 
Q 2741 1038 2741 1694 
Q 2741 2094 2625 2381 
Q 2406 2934 1825 2934 
Q 1241 2934 1025 2350 
Q 909 2038 909 1556 
Q 909 1169 1025 897 
Q 1244 378 1825 378 
z
M 369 3331 
L 916 3331 
L 916 2888 
Q 1084 3116 1284 3241 
Q 1569 3428 1953 3428 
Q 2522 3428 2919 2992 
Q 3316 2556 3316 1747 
Q 3316 653 2744 184 
Q 2381 -113 1900 -113 
Q 1522 -113 1266 53 
Q 1116 147 931 375 
L 931 -1334 
L 369 -1334 
L 369 3331 
z
" transform="scale(0.015625)"/>
     <path id="Helvetica-72" d="M 428 3347 
L 963 3347 
L 963 2769 
Q 1028 2938 1284 3180 
Q 1541 3422 1875 3422 
Q 1891 3422 1928 3419 
Q 1966 3416 2056 3406 
L 2056 2813 
Q 2006 2822 1964 2825 
Q 1922 2828 1872 2828 
Q 1447 2828 1219 2554 
Q 991 2281 991 1925 
L 991 0 
L 428 0 
L 428 3347 
z
" transform="scale(0.015625)"/>
     <path id="Helvetica-6d" d="M 413 3347 
L 969 3347 
L 969 2872 
Q 1169 3119 1331 3231 
Q 1609 3422 1963 3422 
Q 2363 3422 2606 3225 
Q 2744 3113 2856 2894 
Q 3044 3163 3297 3292 
Q 3550 3422 3866 3422 
Q 4541 3422 4784 2934 
Q 4916 2672 4916 2228 
L 4916 0 
L 4331 0 
L 4331 2325 
Q 4331 2659 4164 2784 
Q 3997 2909 3756 2909 
Q 3425 2909 3186 2687 
Q 2947 2466 2947 1947 
L 2947 0 
L 2375 0 
L 2375 2184 
Q 2375 2525 2294 2681 
Q 2166 2916 1816 2916 
Q 1497 2916 1236 2669 
Q 975 2422 975 1775 
L 975 0 
L 413 0 
L 413 3347 
z
" transform="scale(0.015625)"/>
     <path id="Helvetica-61" d="M 844 891 
Q 844 647 1022 506 
Q 1200 366 1444 366 
Q 1741 366 2019 503 
Q 2488 731 2488 1250 
L 2488 1703 
Q 2384 1638 2221 1594 
Q 2059 1550 1903 1531 
L 1563 1488 
Q 1256 1447 1103 1359 
Q 844 1213 844 891 
z
M 2206 2028 
Q 2400 2053 2466 2191 
Q 2503 2266 2503 2406 
Q 2503 2694 2298 2823 
Q 2094 2953 1713 2953 
Q 1272 2953 1088 2716 
Q 984 2584 953 2325 
L 428 2325 
Q 444 2944 830 3186 
Q 1216 3428 1725 3428 
Q 2316 3428 2684 3203 
Q 3050 2978 3050 2503 
L 3050 575 
Q 3050 488 3086 434 
Q 3122 381 3238 381 
Q 3275 381 3322 386 
Q 3369 391 3422 400 
L 3422 -16 
Q 3291 -53 3222 -62 
Q 3153 -72 3034 -72 
Q 2744 -72 2613 134 
Q 2544 244 2516 444 
Q 2344 219 2022 53 
Q 1700 -113 1313 -113 
Q 847 -113 551 170 
Q 256 453 256 878 
Q 256 1344 547 1600 
Q 838 1856 1309 1916 
L 2206 2028 
z
M 1741 3428 
L 1741 3428 
z
" transform="scale(0.015625)"/>
     <path id="Helvetica-6c" d="M 428 4591 
L 991 4591 
L 991 0 
L 428 0 
L 428 4591 
z
" transform="scale(0.015625)"/>
     <path id="Helvetica-20" transform="scale(0.015625)"/>
     <path id="Helvetica-64" d="M 769 1634 
Q 769 1097 997 734 
Q 1225 372 1728 372 
Q 2119 372 2370 708 
Q 2622 1044 2622 1672 
Q 2622 2306 2362 2611 
Q 2103 2916 1722 2916 
Q 1297 2916 1033 2591 
Q 769 2266 769 1634 
z
M 1616 3406 
Q 2000 3406 2259 3244 
Q 2409 3150 2600 2916 
L 2600 4606 
L 3141 4606 
L 3141 0 
L 2634 0 
L 2634 466 
Q 2438 156 2169 18 
Q 1900 -119 1553 -119 
Q 994 -119 584 351 
Q 175 822 175 1603 
Q 175 2334 548 2870 
Q 922 3406 1616 3406 
z
" transform="scale(0.015625)"/>
    </defs>
    <use xlink:href="#Helvetica-65"/>
    <use xlink:href="#Helvetica-78" transform="translate(55.615234 0)"/>
    <use xlink:href="#Helvetica-70" transform="translate(105.615234 0)"/>
    <use xlink:href="#Helvetica-65" transform="translate(161.230469 0)"/>
    <use xlink:href="#Helvetica-72" transform="translate(216.845703 0)"/>
    <use xlink:href="#Helvetica-69" transform="translate(250.146484 0)"/>
    <use xlink:href="#Helvetica-6d" transform="translate(272.363281 0)"/>
    <use xlink:href="#Helvetica-65" transform="translate(355.664062 0)"/>
    <use xlink:href="#Helvetica-6e" transform="translate(411.279297 0)"/>
    <use xlink:href="#Helvetica-74" transform="translate(466.894531 0)"/>
    <use xlink:href="#Helvetica-61" transform="translate(494.677734 0)"/>
    <use xlink:href="#Helvetica-6c" transform="translate(550.292969 0)"/>
    <use xlink:href="#Helvetica-20" transform="translate(572.509766 0)"/>
    <use xlink:href="#Helvetica-64" transform="translate(600.292969 0)"/>
    <use xlink:href="#Helvetica-61" transform="translate(655.908203 0)"/>
    <use xlink:href="#Helvetica-74" transform="translate(711.523438 0)"/>
    <use xlink:href="#Helvetica-61" transform="translate(739.306641 0)"/>
   </g>
  </g>
  <g id="text_17">
   <!--  -->
   <g transform="translate(351.86334 6.277063) scale(0.08 -0.08)"/>
   <!-- simulation data -->
   <g transform="translate(324.96084 16.552688) scale(0.08 -0.08)">
    <defs>
     <path id="Helvetica-75" d="M 975 3347 
L 975 1125 
Q 975 869 1056 706 
Q 1206 406 1616 406 
Q 2203 406 2416 931 
Q 2531 1213 2531 1703 
L 2531 3347 
L 3094 3347 
L 3094 0 
L 2563 0 
L 2569 494 
Q 2459 303 2297 172 
Q 1975 -91 1516 -91 
Q 800 -91 541 388 
Q 400 644 400 1072 
L 400 3347 
L 975 3347 
z
M 1747 3428 
L 1747 3428 
z
" transform="scale(0.015625)"/>
     <path id="Helvetica-6f" d="M 1741 363 
Q 2300 363 2508 786 
Q 2716 1209 2716 1728 
Q 2716 2197 2566 2491 
Q 2328 2953 1747 2953 
Q 1231 2953 997 2559 
Q 763 2166 763 1609 
Q 763 1075 997 719 
Q 1231 363 1741 363 
z
M 1763 3444 
Q 2409 3444 2856 3012 
Q 3303 2581 3303 1744 
Q 3303 934 2909 406 
Q 2516 -122 1688 -122 
Q 997 -122 590 345 
Q 184 813 184 1600 
Q 184 2444 612 2944 
Q 1041 3444 1763 3444 
z
M 1744 3428 
L 1744 3428 
z
" transform="scale(0.015625)"/>
    </defs>
    <use xlink:href="#Helvetica-73"/>
    <use xlink:href="#Helvetica-69" transform="translate(50 0)"/>
    <use xlink:href="#Helvetica-6d" transform="translate(72.216797 0)"/>
    <use xlink:href="#Helvetica-75" transform="translate(155.517578 0)"/>
    <use xlink:href="#Helvetica-6c" transform="translate(211.132812 0)"/>
    <use xlink:href="#Helvetica-61" transform="translate(233.349609 0)"/>
    <use xlink:href="#Helvetica-74" transform="translate(288.964844 0)"/>
    <use xlink:href="#Helvetica-69" transform="translate(316.748047 0)"/>
    <use xlink:href="#Helvetica-6f" transform="translate(338.964844 0)"/>
    <use xlink:href="#Helvetica-6e" transform="translate(394.580078 0)"/>
    <use xlink:href="#Helvetica-20" transform="translate(450.195312 0)"/>
    <use xlink:href="#Helvetica-64" transform="translate(477.978516 0)"/>
    <use xlink:href="#Helvetica-61" transform="translate(533.59375 0)"/>
    <use xlink:href="#Helvetica-74" transform="translate(589.208984 0)"/>
    <use xlink:href="#Helvetica-61" transform="translate(616.992188 0)"/>
   </g>
  </g>
 </g>
 <defs>
  <clipPath id="p2381cfe5d1">
   <rect x="34.269359" y="22.318" width="208.65732" height="140.172172"/>
  </clipPath>
  <clipPath id="p7f8b070735">
   <rect x="247.53468" y="22.318" width="208.65732" height="140.172172"/>
  </clipPath>
 </defs>
</svg>
